# xmcd
#
# Track frame offsets:
#	150
#	18157
#	37857
#	52662
#	68497
#	90960
#	111285
#	132637
#	146717
#	168455
#
# Disc length: 2486 seconds
# Revision: 7
# Processed by: cddbd v1.5.2PL0 Copyright (c) Steve Scherf et al.
# Submitted via: dBpowerAMP V12.0
#
DISCID=7809b40a
DTITLE=Harris - Trio II
DYEAR=1999
DGENRE=Country
TTITLE0=Lover's Return
TTITLE1=High Sierra
TTITLE2=Do I Ever Cross Your Mind
TTITLE3=After the Gold Rush
TTITLE4=The Blue Train
TTITLE5=I Feel the Blues Movin' In
TTITLE6=You'll Never Be the Sun
TTITLE7=He Rode All the Way to Texas
TTITLE8=Feels Like Home
TTITLE9=When We're Gone, Long Gone
EXTD=
EXTT0=
EXTT1=
EXTT2=
EXTT3=
EXTT4=
EXTT5=
EXTT6=
EXTT7=
EXTT8=
EXTT9=
PLAYORDER=
